<?xml version="1.0" encoding="utf-8" standalone="yes"?>
<!DOCTYPE svg PUBLIC "-//W3C//DTD SVG 1.1//EN" "http://www.w3.org/Graphics/SVG/1.1/DTD/svg11.dtd">
<svg xmlns="http://www.w3.org/2000/svg" xmlns:xlink="http://www.w3.org/1999/xlink" xmlns:dc="http://purl.org/dc/elements/1.1/" xmlns:cc="http://web.resource.org/cc/" xmlns:rdf="http://www.w3.org/1999/02/22-rdf-syntax-ns#" xmlns:sodipodi="http://sodipodi.sourceforge.net/DTD/sodipodi-0.dtd" xmlns:inkscape="http://www.inkscape.org/namespaces/inkscape" version="1.1" baseProfile="full" width="780px" height="100px" viewBox="0 0 780 100" preserveAspectRatio="xMidYMid meet" id="svg_document" style="zoom: 2;"><!-- Created with macSVG - https://macsvg.org/ - https://github.com/dsward2/macsvg/ --><g id="main_group"><path d="M104.663002,41.813999 c-0.57,-0.796 -1.426,-1.415 -2.343,-1.783 c-0.228,-0.095 -0.457,-0.174 -0.729,-0.251 l-0.297,-0.083 l-0.373,-0.08 c-0.463,-0.093 -0.955,-0.159 -1.482,-0.17 c-0.527,-0.008 -1.091,0.048 -1.663,0.194 c-0.571,0.144 -1.145,0.389 -1.663,0.711 c-1.05,0.647 -1.828,1.552 -2.423,2.428 c-1.187,1.774 -1.878,3.547 -2.632,5.203 c-0.743,1.654 -1.518,3.201 -2.454,4.489 c-0.899,1.255 -2.026,2.19 -3.184,2.823 c-2.862,0.981 -5.225,2.215 -6.711,0.28 c-0.972,-1.266 0.076,-2.371 1.132,-3.655 c0.252,-0.282 0.504,-0.575 0.758,-0.895 c0.611,-0.785 1.188,-1.611 1.708,-2.479 c0.528,-0.862 1.006,-1.761 1.456,-2.672 c0.451,-0.911 0.861,-1.847 1.206,-2.807 c0.686,-1.919 1.142,-3.93 1.256,-5.943 c0.106,-2.011 -0.103,-4.01 -0.628,-5.85 c-0.128,-0.46 -0.284,-0.908 -0.455,-1.345 c-0.105,-0.283 -0.148,-0.378 -0.262,-0.647 c-0.099,-0.239 -0.193,-0.438 -0.299,-0.65 c-0.414,-0.836 -0.907,-1.603 -1.463,-2.289 c-1.105,-1.372 -2.474,-2.432 -3.935,-3.011 c-0.729,-0.287 -1.469,-0.464 -2.182,-0.513 c-0.696,-0.058 -1.402,-0.013 -2.038,0.166 c-0.641,0.174 -1.211,0.497 -1.638,0.898 c-0.431,0.4 -0.715,0.869 -0.876,1.32 c-0.32,0.898 -0.183,1.768 0.271,2.23 c0.221,0.229 0.477,0.309 0.629,0.333 c0.156,0.024 0.233,0.016 0.233,0.016 c0.19,0.006 0.35,-0.143 0.356,-0.334 c0.005,-0.19 -0.145,-0.35 -0.334,-0.355 c0.004,-0.007 -0.167,-0.001 -0.283,-0.185 c-0.061,-0.093 -0.11,-0.261 -0.102,-0.49 c0.009,-0.227 0.081,-0.506 0.234,-0.781 c0.299,-0.559 0.946,-1.053 1.831,-1.148 c0.443,-0.053 0.93,-0.021 1.456,0.105 c0.513,0.122 1.027,0.341 1.524,0.637 c0.987,0.603 1.9,1.543 2.585,2.713 c0.344,0.583 0.63,1.222 0.846,1.894 c0.053,0.165 0.108,0.347 0.145,0.499 c0.028,0.119 0.114,0.418 0.122,0.535 c0.062,0.364 0.112,0.732 0.15,1.104 c0.146,1.488 0.026,3.042 -0.335,4.562 c-0.351,1.522 -0.906,3.023 -1.663,4.423 c-0.378,0.7 -0.796,1.379 -1.259,2.021 c-0.465,0.642 -0.992,1.235 -1.536,1.794 c-0.55,0.557 -1.125,1.077 -1.71,1.563 c-0.59,0.493 -1.173,0.98 -1.746,1.459 c-0.318,0.266 -0.632,0.532 -0.942,0.8 c-2.504,2.059 -3.968,2.98 -5.023,3.301 c1.051,-2.851 1.656,-5.973 1.656,-8.879 c0,-8.508 -5.38,-11.035 -11.558,-11.953 c-6.177,0.918 -11.556,3.444 -11.556,11.953 c0,2.848 0.582,5.9 1.593,8.704 c-1.666,-0.7 -4.031,-2.383 -6.438,-5.454 c-0.62,-0.879 -1.271,-1.773 -1.959,-2.68 c-0.347,-0.435 -0.678,-0.887 -1.021,-1.343 c-0.353,-0.449 -0.692,-0.915 -1.038,-1.387 c-0.679,-0.948 -1.343,-1.941 -1.947,-2.992 c-0.145,-0.265 -0.29,-0.531 -0.436,-0.799 l-0.219,-0.403 c-0.018,-0.039 0.008,0.025 0.001,0.008 l-0.013,-0.028 l-0.025,-0.056 l-0.05,-0.112 l-0.101,-0.224 l-0.201,-0.449 l-0.169,-0.403 c-0.113,-0.263 -0.225,-0.542 -0.333,-0.829 c-0.434,-1.136 -0.808,-2.301 -1.069,-3.483 c-0.538,-2.36 -0.658,-4.801 -0.153,-7.084 c0.491,-2.281 1.615,-4.404 3.27,-6.077 c1.643,-1.675 3.764,-2.912 5.951,-3.536 c1.09,-0.315 2.202,-0.483 3.233,-0.443 c0.258,0.008 0.507,0.033 0.75,0.067 c0.119,0.021 0.24,0.038 0.354,0.065 l0.174,0.039 l0.222,0.055 c0.556,0.139 1.074,0.284 1.52,0.465 c0.45,0.178 0.818,0.385 1.133,0.655 c0.319,0.264 0.59,0.605 0.83,1.004 l0.089,0.151 l0.021,0.038 l0.012,0.019 c0.017,0.034 -0.01,-0.026 -0.003,-0.011 l0.047,0.093 l0.093,0.185 l0.06,0.134 c0.082,0.169 0.151,0.389 0.208,0.582 c0.1,0.399 0.133,0.801 0.098,1.204 c-0.081,0.804 -0.428,1.606 -0.925,2.301 c-0.193,0.257 -0.483,0.546 -0.774,0.751 c-0.298,0.212 -0.619,0.378 -0.95,0.489 c-0.661,0.219 -1.348,0.247 -1.942,0.098 c-0.15,-0.03 -0.29,-0.083 -0.43,-0.13 l-0.026,-0.009 c0.041,0.021 0.003,0.001 0.008,0.004 l-0.015,-0.006 l-0.059,-0.027 l-0.117,-0.054 c-0.087,-0.037 -0.133,-0.068 -0.188,-0.099 c-0.225,-0.123 -0.458,-0.295 -0.633,-0.475 c-0.374,-0.356 -0.6,-0.776 -0.737,-1.157 c-0.135,-0.386 -0.169,-0.742 -0.172,-1.029 c0.002,-0.144 0.006,-0.272 0.022,-0.382 c0.013,-0.111 0.024,-0.205 0.043,-0.278 c0.032,-0.149 0.048,-0.227 0.048,-0.227 l0.008,-0.035 c0.035,-0.17 -0.063,-0.344 -0.233,-0.398 c-0.182,-0.057 -0.376,0.043 -0.433,0.225 c0,0 -0.027,0.088 -0.083,0.261 c-0.03,0.085 -0.056,0.195 -0.083,0.328 c-0.034,0.131 -0.054,0.286 -0.073,0.463 c-0.032,0.354 -0.034,0.806 0.092,1.32 c0.128,0.51 0.372,1.092 0.822,1.619 c0.224,0.27 0.48,0.511 0.817,0.743 c0.084,0.058 0.178,0.122 0.245,0.158 l0.111,0.064 l0.056,0.032 l0.014,0.008 l0.038,0.021 l0.034,0.016 c0.182,0.085 0.368,0.174 0.568,0.237 c0.792,0.281 1.735,0.344 2.692,0.127 c0.479,-0.112 0.955,-0.303 1.409,-0.57 c0.459,-0.273 0.868,-0.591 1.281,-1.054 c0.66,-0.774 1.295,-1.765 1.564,-3.004 c0.131,-0.616 0.157,-1.282 0.067,-1.939 c-0.053,-0.333 -0.113,-0.641 -0.226,-0.984 l-0.082,-0.25 l-0.072,-0.194 l-0.035,-0.097 l-0.062,-0.141 l-0.099,-0.221 c-0.271,-0.588 -0.638,-1.199 -1.146,-1.735 c-0.5,-0.543 -1.121,-0.983 -1.74,-1.31 c-0.62,-0.334 -1.239,-0.577 -1.841,-0.8 l-0.214,-0.079 c-0.084,-0.032 -0.177,-0.057 -0.265,-0.085 c-0.18,-0.059 -0.358,-0.103 -0.539,-0.148 c-0.359,-0.084 -0.721,-0.151 -1.082,-0.193 c-1.447,-0.178 -2.889,-0.072 -4.306,0.209 c-2.826,0.581 -5.578,1.907 -7.9,3.93 c-2.323,2.011 -4.128,4.801 -5.003,7.855 c-0.882,3.058 -0.891,6.258 -0.408,9.204 c0.234,1.481 0.599,2.909 1.028,4.282 c0.106,0.342 0.219,0.686 0.345,1.037 l0.184,0.52 l0.173,0.46 c0.245,0.657 0.488,1.31 0.729,1.957 c0.998,2.561 2.042,5.036 3.328,7.204 c0.18,0.307 0.365,0.604 0.555,0.897 c2.882,4.694 5.864,5.368 4.19,7.166 c-0.859,0.922 -2.388,1.17 -4.031,0.969 c-0.037,-0.005 -0.074,-0.008 -0.109,-0.013 c-0.095,-0.013 -0.191,-0.03 -0.287,-0.046 c-0.154,-0.025 -0.309,-0.056 -0.463,-0.087 c-0.101,-0.021 -0.202,-0.042 -0.304,-0.065 c-0.03,-0.007 -0.06,-0.015 -0.089,-0.021 c-0.758,-0.189 -1.509,-0.459 -2.203,-0.791 l-0.304,-0.154 c-1.196,-0.63 -2.366,-1.583 -3.297,-2.873 c-0.94,-1.284 -1.719,-2.829 -2.467,-4.481 c-0.759,-1.653 -1.456,-3.425 -2.648,-5.195 c-0.597,-0.875 -1.378,-1.776 -2.43,-2.422 c-0.519,-0.319 -1.093,-0.563 -1.665,-0.706 c-0.572,-0.144 -1.136,-0.198 -1.664,-0.188 c-0.527,0.011 -1.02,0.08 -1.48,0.173 l-0.373,0.082 l-0.297,0.084 c-0.271,0.078 -0.501,0.157 -0.729,0.252 c-0.916,0.373 -1.77,0.993 -2.337,1.792 c-0.578,0.792 -0.849,1.712 -0.869,2.552 c-0.024,0.843 0.171,1.621 0.512,2.271 c0.339,0.652 0.835,1.182 1.402,1.512 c0.567,0.335 1.187,0.441 1.697,0.41 c0.517,-0.026 0.934,-0.175 1.268,-0.321 c0.332,-0.153 0.585,-0.317 0.779,-0.46 c0.194,-0.141 0.333,-0.258 0.424,-0.338 c0.09,-0.081 0.137,-0.123 0.137,-0.123 c0.117,-0.104 0.152,-0.279 0.074,-0.424 c-0.092,-0.168 -0.301,-0.229 -0.47,-0.139 l-0.017,0.01 c0,0 -0.049,0.027 -0.145,0.078 c-0.095,0.053 -0.237,0.126 -0.426,0.205 c-0.367,0.156 -0.956,0.362 -1.586,0.258 c-0.618,-0.096 -1.206,-0.573 -1.434,-1.398 c-0.114,-0.402 -0.127,-0.87 -0.017,-1.31 c0.113,-0.438 0.334,-0.841 0.664,-1.138 c0.329,-0.3 0.762,-0.507 1.291,-0.612 c0.133,-0.029 0.275,-0.046 0.381,-0.055 l0.276,-0.027 l0.019,-0.002 c0.015,-0.002 -0.057,0.011 -0.02,0.005 l0.029,-0.001 l0.061,-0.002 l0.12,-0.004 c0.317,-0.008 0.625,0.007 0.907,0.054 c0.569,0.097 0.997,0.292 1.35,0.618 c0.356,0.321 0.688,0.809 0.989,1.449 c0.301,0.637 0.566,1.396 0.821,2.213 c0.266,0.856 0.535,1.723 0.807,2.597 c0.565,1.812 1.237,3.77 2.287,5.692 c1.037,1.922 2.431,3.835 4.275,5.34 l0.657,0.517 c0.27,0.2 0.501,0.351 0.759,0.518 c0.511,0.318 1.042,0.606 1.591,0.851 c1.098,0.484 2.254,0.818 3.39,0.968 c0.672,0.097 1.329,0.13 1.973,0.122 c0.006,0.01 0.011,0.02 0.011,0.02 s2.691,-0.029 3.824,1.166 c0.34,0.359 0.71,0.787 0.54,1.771 c-0.208,1.201 -0.865,1.76 -2.6,1.709 c-0.001,0 -0.002,0 -0.002,0 c-1.434,-0.112 -2.92,-0.157 -4.384,-0.012 c-1.462,0.138 -2.897,0.499 -4.15,1.066 c-0.632,0.292 -1.185,0.583 -1.785,1.021 c-0.315,0.229 -0.563,0.47 -0.81,0.742 c-0.234,0.282 -0.445,0.578 -0.602,0.906 c-0.328,0.647 -0.446,1.373 -0.369,2.026 c0.078,0.656 0.337,1.239 0.7,1.685 c0.364,0.445 0.825,0.763 1.296,0.914 c0.471,0.156 0.927,0.162 1.304,0.097 c0.758,-0.151 1.213,-0.493 1.487,-0.725 c0.146,-0.111 0.232,-0.217 0.302,-0.278 c0.064,-0.064 0.099,-0.098 0.099,-0.098 c0.11,-0.108 0.137,-0.283 0.054,-0.423 c-0.098,-0.163 -0.309,-0.216 -0.474,-0.118 l-0.03,0.018 c0,0 -0.036,0.021 -0.103,0.062 c-0.069,0.035 -0.162,0.108 -0.298,0.166 c-0.258,0.134 -0.67,0.293 -1.134,0.274 c-0.23,-0.016 -0.465,-0.081 -0.674,-0.215 c-0.211,-0.129 -0.388,-0.338 -0.515,-0.586 c-0.25,-0.51 -0.205,-1.199 0.231,-1.693 c0.201,-0.251 0.521,-0.484 0.867,-0.647 c0.35,-0.173 0.881,-0.336 1.378,-0.442 c1.016,-0.224 2.113,-0.25 3.268,-0.138 c1.155,0.11 2.366,0.384 3.642,0.712 c0.641,0.168 1.295,0.35 1.979,0.53 c0.098,0.036 0.197,0.069 0.302,0.098 c3.94,1.082 8.796,5.32 5.369,10.059 c-0.117,0.134 -0.237,0.264 -0.362,0.387 c-0.823,0.828 -1.84,1.437 -3.015,1.824 c-0.29,0.101 -0.593,0.176 -0.895,0.257 c-0.156,0.033 -0.309,0.065 -0.462,0.099 c-0.046,0.029 -0.371,0.06 -0.409,0.071 c-0.466,0.069 -1.036,0.039 -1.547,-0.073 c-1.032,-0.232 -1.993,-0.771 -2.494,-1.471 c-0.252,-0.347 -0.381,-0.725 -0.395,-1.118 c0.001,-0.044 -0.008,-0.111 0.001,-0.138 c0.011,-0.062 0.023,-0.138 0.033,-0.169 c0.016,-0.074 0.047,-0.182 0.082,-0.271 c0.068,-0.188 0.161,-0.365 0.269,-0.529 c0.431,-0.661 1.071,-1.045 1.588,-1.108 c0.524,-0.07 0.935,0.131 1.18,0.315 c0.126,0.091 0.217,0.174 0.274,0.232 c0.06,0.059 0.09,0.09 0.09,0.09 l0.021,0.021 c0.121,0.123 0.317,0.136 0.457,0.025 c0.148,-0.118 0.173,-0.335 0.055,-0.483 c0,0 -0.033,-0.043 -0.098,-0.124 s-0.166,-0.201 -0.321,-0.341 c-0.151,-0.142 -0.36,-0.306 -0.649,-0.439 c-0.285,-0.137 -0.656,-0.229 -1.071,-0.223 c-0.835,0.019 -1.775,0.474 -2.476,1.324 c-0.175,0.214 -0.336,0.453 -0.472,0.724 c-0.069,0.136 -0.127,0.269 -0.185,0.439 c-0.033,0.093 -0.046,0.143 -0.065,0.207 l-0.068,0.25 c-0.173,0.651 -0.111,1.42 0.158,2.109 c0.267,0.693 0.714,1.312 1.254,1.844 c0.541,0.534 1.19,0.975 1.917,1.322 c0.737,0.343 1.521,0.593 2.452,0.685 c0.31,0.021 0.335,0.038 0.641,0.037 c0.198,0.003 0.398,0.006 0.599,0.009 c0.403,-0.01 0.813,-0.023 1.232,-0.073 c0.836,-0.089 1.704,-0.265 2.566,-0.56 s1.711,-0.718 2.497,-1.237 c1.581,-1.047 2.845,-2.46 3.85,-3.882 c0.508,-0.713 0.958,-1.436 1.388,-2.147 c0.251,-0.414 0.498,-0.825 0.747,-1.238 c1.141,-1.459 3.063,-2.752 5.271,-3.069 c2.537,0.072 4.798,1.493 6.08,3.122 c0.249,0.412 0.498,0.823 0.75,1.236 c0.432,0.711 0.885,1.433 1.395,2.144 c1.008,1.418 2.277,2.828 3.86,3.869 c0.788,0.518 1.638,0.938 2.501,1.23 c0.863,0.293 1.731,0.465 2.568,0.553 c0.419,0.049 0.83,0.06 1.232,0.068 c0.2,-0.003 0.4,-0.007 0.599,-0.01 c0.305,0 0.331,-0.018 0.641,-0.039 c0.931,-0.095 1.714,-0.347 2.449,-0.692 c0.726,-0.35 1.374,-0.792 1.914,-1.327 c0.538,-0.533 0.984,-1.153 1.248,-1.848 c0.267,-0.689 0.327,-1.459 0.151,-2.109 l-0.068,-0.25 c-0.021,-0.064 -0.033,-0.115 -0.066,-0.207 c-0.059,-0.172 -0.116,-0.303 -0.186,-0.44 c-0.137,-0.269 -0.299,-0.508 -0.475,-0.721 c-0.702,-0.849 -1.643,-1.301 -2.479,-1.316 c-0.416,-0.006 -0.787,0.087 -1.071,0.226 c-0.288,0.135 -0.497,0.3 -0.648,0.44 c-0.154,0.141 -0.256,0.261 -0.319,0.343 c-0.064,0.081 -0.098,0.124 -0.098,0.124 c-0.107,0.136 -0.099,0.332 0.027,0.457 c0.133,0.134 0.352,0.134 0.486,0 l0.021,-0.021 c0,0 0.029,-0.031 0.089,-0.09 c0.058,-0.06 0.148,-0.143 0.273,-0.233 c0.245,-0.186 0.655,-0.387 1.179,-0.318 c0.518,0.062 1.159,0.443 1.592,1.104 c0.106,0.163 0.2,0.341 0.271,0.527 c0.035,0.091 0.066,0.198 0.083,0.272 c0.009,0.03 0.021,0.106 0.034,0.168 c0.008,0.027 0,0.094 0.001,0.138 c-0.015,0.395 -0.142,0.772 -0.393,1.119 c-0.499,0.701 -1.458,1.243 -2.489,1.479 c-0.511,0.114 -1.081,0.146 -1.546,0.078 c-0.039,-0.012 -0.363,-0.041 -0.41,-0.07 c-0.152,-0.032 -0.307,-0.065 -0.461,-0.098 c-0.303,-0.079 -0.606,-0.153 -0.897,-0.254 c-1.176,-0.383 -2.193,-0.989 -3.02,-1.814 c-0.123,-0.122 -0.243,-0.251 -0.36,-0.383 c-3.446,-4.729 1.398,-8.983 5.337,-10.077 c0.104,-0.029 0.203,-0.063 0.302,-0.1 c0.684,-0.183 1.336,-0.366 1.977,-0.535 c1.274,-0.332 2.484,-0.608 3.639,-0.724 s2.252,-0.092 3.269,0.129 c0.498,0.104 1.029,0.266 1.379,0.438 c0.347,0.161 0.668,0.393 0.87,0.643 c0.438,0.494 0.484,1.185 0.235,1.693 c-0.126,0.249 -0.303,0.459 -0.513,0.589 c-0.208,0.134 -0.443,0.2 -0.673,0.216 c-0.465,0.021 -0.876,-0.138 -1.135,-0.271 c-0.137,-0.058 -0.229,-0.131 -0.298,-0.166 c-0.068,-0.04 -0.103,-0.061 -0.103,-0.061 l-0.031,-0.019 c-0.134,-0.08 -0.309,-0.062 -0.423,0.055 c-0.134,0.137 -0.132,0.354 0.005,0.488 c0,0 0.034,0.033 0.1,0.097 c0.069,0.062 0.155,0.167 0.303,0.278 c0.274,0.229 0.729,0.57 1.487,0.72 c0.378,0.063 0.834,0.058 1.305,-0.101 c0.471,-0.153 0.93,-0.472 1.293,-0.918 c0.362,-0.446 0.619,-1.031 0.695,-1.687 c0.075,-0.654 -0.045,-1.38 -0.375,-2.025 c-0.157,-0.327 -0.369,-0.623 -0.604,-0.903 c-0.247,-0.272 -0.496,-0.512 -0.812,-0.741 c-0.602,-0.437 -1.156,-0.726 -1.788,-1.016 c-1.255,-0.563 -2.691,-0.922 -4.153,-1.054 c-1.466,-0.143 -2.952,-0.093 -4.387,0.024 c-1.733,0.056 -2.393,-0.501 -2.604,-1.701 c-0.173,-0.984 0.195,-1.414 0.535,-1.774 c1.128,-1.196 3.82,-1.178 3.82,-1.178 s0.006,-0.009 0.011,-0.018 c0.643,0.005 1.3,-0.03 1.972,-0.128 c1.136,-0.153 2.29,-0.49 3.388,-0.979 c0.547,-0.246 1.077,-0.536 1.587,-0.854 c0.258,-0.169 0.489,-0.32 0.758,-0.521 l0.655,-0.519 c1.841,-1.511 3.229,-3.428 4.26,-5.353 c1.043,-1.927 1.71,-3.886 2.271,-5.699 c0.269,-0.875 0.535,-1.742 0.799,-2.6 c0.252,-0.817 0.516,-1.578 0.815,-2.215 c0.299,-0.642 0.63,-1.129 0.984,-1.452 c0.352,-0.327 0.779,-0.522 1.347,-0.622 c0.283,-0.047 0.591,-0.063 0.909,-0.056 l0.118,0.004 l0.061,0.002 l0.029,0 c0.038,0.006 -0.033,-0.008 -0.019,-0.005 l0.019,0.001 l0.275,0.026 c0.106,0.008 0.25,0.025 0.383,0.053 c0.528,0.104 0.962,0.31 1.291,0.607 c0.331,0.297 0.555,0.7 0.669,1.137 c0.11,0.439 0.1,0.907 -0.014,1.309 c-0.226,0.826 -0.812,1.307 -1.43,1.404 c-0.629,0.105 -1.219,-0.099 -1.586,-0.254 c-0.188,-0.078 -0.331,-0.151 -0.427,-0.203 s-0.146,-0.078 -0.146,-0.078 l-0.017,-0.01 c-0.139,-0.075 -0.315,-0.047 -0.424,0.076 c-0.126,0.143 -0.112,0.362 0.031,0.488 c0,0 0.047,0.041 0.138,0.122 c0.09,0.079 0.229,0.196 0.424,0.337 c0.194,0.142 0.448,0.306 0.781,0.457 c0.334,0.146 0.751,0.293 1.269,0.318 c0.51,0.028 1.129,-0.08 1.695,-0.416 c0.566,-0.332 1.062,-0.863 1.397,-1.516 c0.339,-0.652 0.531,-1.43 0.506,-2.272 C105.516998,43.525002 105.244003,42.604 104.663002,41.813999 " id="octopus" fill="#333"></path><text stroke="none" style="outline-style:none;" id="text1" stroke-width="1px" x="289.327637px" font-weight="500" text-rendering="geometricPrecision" font-family="Fraunces" fill="#333" font-size="48px" y="67.28479px" transform="" text-anchor="middle">Sneaky Octopus</text></g></svg>